HIERARCHY
ROOT Hips
{
	OFFSET -0.001795 -0.223333 0.028219
	CHANNELS 6 Xposition Yposition Zposition Zrotation Yrotation Xrotation 
	JOINT LeftUpLeg
	{
		OFFSET 0.069520 -0.091406 -0.006815
		CHANNELS 3 Zrotation Yrotation Xrotation
		JOINT LeftLeg
		{
			OFFSET 0.034277 -0.375199 -0.004496
			CHANNELS 3 Zrotation Yrotation Xrotation
			JOINT LeftFoot
			{
				OFFSET -0.013596 -0.397961 -0.043693
				CHANNELS 3 Zrotation Yrotation Xrotation
				JOINT LeftToe
				{
					OFFSET 0.026358 -0.055791 0.119288
					CHANNELS 3 Zrotation Yrotation Xrotation
					End Site
					{
						OFFSET 0.000000 0.000000 0.000000
					}
				}
			}
		}
	}
	JOINT RightUpLeg
	{
		OFFSET -0.067670 -0.090522 -0.004320
		CHANNELS 3 Zrotation Yrotation Xrotation
		JOINT RightLeg
		{
			OFFSET -0.038290 -0.382569 -0.008850
			CHANNELS 3 Zrotation Yrotation Xrotation
			JOINT RightFoot
			{
				OFFSET 0.015774 -0.398415 -0.042312
				CHANNELS 3 Zrotation Yrotation Xrotation
				JOINT RightToe
				{
					OFFSET -0.025372 -0.048144 0.123348
					CHANNELS 3 Zrotation Yrotation Xrotation
					End Site
					{
						OFFSET 0.000000 0.000000 0.000000
					}
				}
			}
		}
	}
	JOINT Spine
	{
		OFFSET -0.002533 0.108963 -0.026696
		CHANNELS 3 Zrotation Yrotation Xrotation
		JOINT Spine1
		{
			OFFSET 0.005487 0.135180 0.001092
			CHANNELS 3 Zrotation Yrotation Xrotation
			JOINT Spine2
			{
				OFFSET 0.001457 0.052922 0.025425
				CHANNELS 3 Zrotation Yrotation Xrotation
				JOINT Neck
				{
					OFFSET -0.002778 0.213870 -0.042857
					CHANNELS 3 Zrotation Yrotation Xrotation
					JOINT Head
					{
						OFFSET 0.005152 0.064970 0.051349
						CHANNELS 3 Zrotation Yrotation Xrotation
						End Site
						{
							OFFSET 0.000000 0.000000 0.000000
						}
					}
				}
				JOINT LeftShoulder
				{
					OFFSET 0.078845 0.121749 -0.034090
					CHANNELS 3 Zrotation Yrotation Xrotation
					JOINT LeftArm
					{
						OFFSET 0.090977 0.030469 -0.008868
						CHANNELS 3 Zrotation Yrotation Xrotation
						JOINT LeftForeArm
						{
							OFFSET 0.259612 -0.012772 -0.027456
							CHANNELS 3 Zrotation Yrotation Xrotation
							JOINT LeftHand
							{
								OFFSET 0.249234 0.008986 -0.001171
								CHANNELS 3 Zrotation Yrotation Xrotation
								End Site
								{
									OFFSET 0.000000 0.000000 0.000000
								}
							}
						}
					}
				}
				JOINT RightShoulder
				{
					OFFSET -0.081759 0.118833 -0.038615
					CHANNELS 3 Zrotation Yrotation Xrotation
					JOINT RightArm
					{
						OFFSET -0.096012 0.032551 -0.009143
						CHANNELS 3 Zrotation Yrotation Xrotation
						JOINT RightForeArm
						{
							OFFSET -0.253742 -0.013329 -0.021401
							CHANNELS 3 Zrotation Yrotation Xrotation
							JOINT RightHand
							{
								OFFSET -0.255298 0.007772 -0.005559
								CHANNELS 3 Zrotation Yrotation Xrotation
								End Site
								{
									OFFSET 0.000000 0.000000 0.000000
								}
							}
						}
					}
				}
			}
		}
	}
}
MOTION
Frames: 17
Frame Time: 0.050000
0.039136 1.001066 -0.038989 -3.982672 -8.627889 -0.263696 5.840736 -0.168583 -5.689611 -2.191016 1.014419 -23.431902 38.714745 25.114051 121.218135 0.000000 0.000000 0.000000 -2.339094 0.401220 -4.035398 0.626209 -0.401433 -19.853512 -38.252085 -21.812936 116.765665 0.000000 0.000000 0.000000 0.639382 -0.325733 7.675842 4.288333 2.301176 -51.654007 4.606291 2.514922 59.910758 -13.245407 3.444044 -94.029855 0.000000 0.000000 0.000000 25.903708 8.553831 -3.897279 -2.085999 20.600667 0.319850 20.860296 17.546882 2.751670 0.000000 0.000000 0.000000 13.357450 -1.799447 -0.880772 58.585072 20.716097 -2.837276 41.170741 -36.333009 -12.692851 0.000000 0.000000 0.000000 
0.039613 1.000381 -0.038840 -3.751993 -8.278392 -0.251366 5.096529 -0.218322 -5.613049 -1.580400 1.051622 -23.519891 37.912746 25.127173 120.298028 0.000000 0.000000 0.000000 -2.669403 0.366969 -3.576025 0.531434 -0.425004 -20.308908 -38.192044 -22.197556 115.969355 0.000000 0.000000 0.000000 0.722255 -0.325350 7.456958 4.449957 2.212781 -51.267740 4.506295 2.731488 59.216580 -12.663780 3.449955 -93.123618 0.000000 0.000000 0.000000 25.739105 8.292657 -3.705328 -1.692042 22.205631 0.499636 23.919952 16.576130 2.991694 0.000000 0.000000 0.000000 13.352212 -2.045344 -0.966231 57.854500 20.671794 -2.757025 43.778145 -37.777595 -14.135394 0.000000 0.000000 0.000000 
0.040326 1.000434 -0.039206 -3.690097 -7.958825 -0.230993 4.787968 -0.235570 -5.480003 -1.590402 1.033032 -23.457763 38.767893 25.071270 120.332479 0.000000 0.000000 0.000000 -2.915839 0.403256 -4.043686 0.442416 -0.445990 -20.034165 -38.560552 -22.277505 116.311047 0.000000 0.000000 0.000000 1.080658 -0.344812 7.256986 4.214154 2.142308 -51.023555 4.627414 2.831897 59.087169 -13.314737 3.415050 -92.408744 0.000000 0.000000 0.000000 25.755648 8.440204 -3.646888 -2.503561 24.102419 0.217063 28.548443 16.696651 3.638722 0.000000 0.000000 0.000000 12.831662 -2.507778 -1.131828 57.359607 21.678239 -2.230795 46.255985 -39.200678 -15.548281 0.000000 0.000000 0.000000 
0.041092 1.000793 -0.040030 -3.623225 -6.781485 -0.357423 4.509512 -0.261090 -5.428832 -1.871093 0.949535 -23.397185 38.794092 24.803979 119.529583 0.000000 0.000000 0.000000 -3.098018 0.400748 -4.081462 0.352474 -0.500260 -19.754286 -39.172671 -22.751216 116.566570 0.000000 0.000000 0.000000 1.112703 -0.337693 6.931871 3.961056 1.927261 -50.395650 4.442570 2.688260 58.759052 -13.061879 3.344282 -91.888797 0.000000 0.000000 0.000000 25.630549 7.763647 -3.397171 -2.479021 26.245817 0.201834 32.440164 17.784484 4.335148 0.000000 0.000000 0.000000 12.570111 -2.685368 -1.134979 56.313923 22.380447 -1.855152 49.662395 -40.038212 -17.187143 0.000000 0.000000 0.000000 
0.041659 1.001973 -0.041246 -3.750252 -5.927149 -0.442029 4.406902 -0.279149 -5.506060 -1.994308 0.861315 -22.564880 37.164317 24.832507 117.061880 0.000000 0.000000 0.000000 -3.281895 0.403123 -4.183444 0.894815 -0.487182 -19.127265 -39.630065 -23.929754 114.116915 0.000000 0.000000 0.000000 1.479702 -0.367263 6.991940 3.836079 1.758324 -49.690568 4.277486 2.932895 58.170602 -11.841553 3.294621 -90.920490 0.000000 0.000000 0.000000 25.757738 7.636562 -3.172373 -3.302096 28.097724 -0.179184 36.376558 18.896366 5.106819 0.000000 0.000000 0.000000 12.635141 -3.091398 -1.235227 55.403224 23.315148 -1.352603 51.095940 -40.023716 -17.659905 0.000000 0.000000 0.000000 
0.041794 1.001757 -0.042780 -3.664656 -4.379112 -0.465501 4.125066 -0.313534 -5.590514 -1.982393 0.786042 -22.478120 36.015261 24.474773 115.575875 0.000000 0.000000 0.000000 -3.185245 0.387362 -4.079231 0.504284 -0.570142 -18.940911 -39.873494 -24.912137 112.798929 0.000000 0.000000 0.000000 1.178939 -0.350184 6.942734 3.574423 1.527459 -48.971132 3.977324 2.467294 57.555402 -11.489738 3.274789 -90.143397 0.000000 0.000000 0.000000 25.915011 7.596686 -3.011262 -3.094875 28.663901 -0.141736 39.169066 20.831740 5.998774 0.000000 0.000000 0.000000 12.940013 -2.812002 -1.043472 53.991860 23.867686 -1.111895 52.138273 -39.489310 -17.900366 0.000000 0.000000 0.000000 
0.041532 1.000810 -0.044262 -3.890152 -3.372949 -0.231176 4.535456 -0.320231 -5.852088 -2.227511 0.689402 -21.422036 33.791150 24.565770 111.770715 0.000000 0.000000 0.000000 -3.034425 0.398533 -4.267959 0.733269 -0.579286 -18.340659 -38.419418 -26.101529 108.754273 0.000000 0.000000 0.000000 1.286869 -0.339291 6.482680 2.993658 1.325493 -47.381766 4.173364 2.429651 56.508731 -12.157122 3.356717 -88.077635 0.000000 0.000000 0.000000 26.615027 8.241346 -2.841964 -3.984666 27.715017 -0.527039 43.427828 22.613667 7.227422 0.000000 0.000000 0.000000 12.696650 -3.103370 -1.109575 53.398348 24.705723 -0.590388 51.731688 -36.688930 -16.356606 0.000000 0.000000 0.000000 
0.041253 0.999821 -0.045422 -3.759618 -1.637335 -0.277033 4.611925 -0.341662 -5.993906 -2.132084 0.603836 -20.688207 29.597381 23.933023 108.642965 0.000000 0.000000 0.000000 -2.979581 0.329349 -3.450678 0.898327 -0.620769 -18.096758 -37.541571 -27.428439 104.793591 0.000000 0.000000 0.000000 0.831311 -0.296923 6.099487 2.544271 1.077142 -45.472373 4.066158 2.787790 55.584709 -12.970282 3.437867 -85.548410 0.000000 0.000000 0.000000 27.550639 9.156519 -2.495934 -3.987960 24.578570 -0.566838 45.268297 24.811878 7.993823 0.000000 0.000000 0.000000 13.379927 -2.852809 -0.769234 51.013750 25.260821 -0.439714 52.714997 -32.282734 -14.431268 0.000000 0.000000 0.000000 
0.041154 0.998127 -0.046467 -4.032944 0.047659 -0.334470 4.925285 -0.334387 -5.750858 -1.964559 0.520342 -19.174833 25.491316 23.620362 102.177039 0.000000 0.000000 0.000000 -2.756962 0.291947 -3.051554 1.051032 -0.630087 -16.911544 -34.909906 -28.430829 99.216329 0.000000 0.000000 0.000000 0.970200 -0.291285 5.734125 1.659965 0.893135 -42.908030 4.654517 3.300802 53.470740 -13.442242 3.848609 -81.023306 0.000000 0.000000 0.000000 28.323912 9.873233 -1.866933 -5.427378 20.911472 -1.097000 50.788436 24.980505 8.740492 0.000000 0.000000 0.000000 13.302180 -3.447121 -0.849031 49.953094 25.161163 -0.246086 52.496880 -24.876111 -10.549786 0.000000 0.000000 0.000000 
0.041623 0.997768 -0.047071 -4.164271 1.898944 -0.742388 4.557631 -0.351722 -5.560773 -1.514053 0.465171 -18.077870 21.014294 22.802714 96.528452 0.000000 0.000000 0.000000 -2.527520 0.219531 -2.246677 1.366219 -0.621372 -15.518674 -33.842682 -29.819975 92.811906 0.000000 0.000000 0.000000 1.289013 -0.295302 5.439032 0.873827 0.787454 -40.055562 4.520278 4.518514 51.579212 -11.707962 4.263834 -75.816055 0.000000 0.000000 0.000000 27.817771 10.410074 -1.159333 -5.948131 16.106312 -1.216647 57.985205 24.436285 8.998584 0.000000 0.000000 0.000000 14.588022 -3.200187 -0.341968 46.398303 25.815992 -0.159121 53.704974 -15.782568 -6.099500 0.000000 0.000000 0.000000 
0.042049 0.995892 -0.047897 -4.050426 3.713988 -0.640721 4.169537 -0.359779 -5.202247 -1.365562 0.407251 -17.142514 17.840868 22.487039 87.688307 0.000000 0.000000 0.000000 -2.535195 0.161549 -1.606633 1.397105 -0.610650 -14.184865 -29.893396 -29.981672 85.126415 0.000000 0.000000 0.000000 1.322276 -0.276529 5.007461 -0.412481 0.840154 -37.360539 4.353125 4.811643 48.954217 -10.755947 4.920737 -69.959494 0.000000 0.000000 0.000000 26.312101 10.053547 -0.559403 -7.932323 12.381239 -1.715868 67.807491 21.965253 8.810142 0.000000 0.000000 0.000000 14.351718 -3.525500 -0.356137 44.145026 26.229292 0.070024 55.195428 -1.778846 1.374823 0.000000 0.000000 0.000000 
0.042349 0.994954 -0.048563 -3.877167 4.346626 -0.735145 4.337703 -0.345994 -4.955388 -0.976778 0.398256 -16.122757 13.097125 21.249358 80.558600 0.000000 0.000000 0.000000 -2.472428 0.130075 -1.257792 1.951672 -0.550927 -12.173579 -27.485677 -30.241088 77.361686 0.000000 0.000000 0.000000 1.687616 -0.304067 5.154471 -1.381662 0.958666 -35.527307 3.907071 6.262570 47.163896 -7.161115 4.988496 -63.951226 0.000000 0.000000 0.000000 24.013001 8.993843 -0.006175 -11.663182 7.378212 -2.501549 82.266596 21.033204 10.027382 0.000000 0.000000 0.000000 13.244790 -3.372396 -0.159864 39.757188 27.795021 0.431234 59.252963 20.597050 15.642425 0.000000 0.000000 0.000000 
0.042184 0.992741 -0.049726 -3.781787 5.569654 -0.295488 4.082380 -0.365821 -4.985511 -1.029410 0.350889 -14.233254 10.117057 20.434423 69.195145 0.000000 0.000000 0.000000 -2.516675 0.093538 -0.839978 2.018415 -0.518606 -10.647632 -21.201452 -28.294939 66.116365 0.000000 0.000000 0.000000 2.386236 -0.270634 4.015113 -3.185938 1.284599 -32.050102 2.879367 6.880950 44.026986 -3.063989 4.616533 -56.755182 0.000000 0.000000 0.000000 21.619932 6.962217 0.646757 -18.505224 2.163320 -3.696346 99.729351 14.814800 7.569895 0.000000 0.000000 0.000000 11.961288 -3.705641 -0.361655 35.636633 29.263961 0.805073 74.843602 66.957358 63.887019 0.000000 0.000000 0.000000 
0.042024 0.990525 -0.050392 -3.965311 5.543002 -0.128641 4.582283 -0.365770 -5.122023 -0.727264 0.338527 -12.479194 6.104543 18.288556 61.260333 0.000000 0.000000 0.000000 -2.033666 0.112038 -1.045033 2.092017 -0.455549 -8.546753 -17.246835 -26.494551 57.396072 0.000000 0.000000 0.000000 3.147581 -0.264207 3.418195 -4.502583 1.619701 -28.901531 1.388464 7.386369 41.094114 1.667214 3.334433 -49.345298 0.000000 0.000000 0.000000 18.451784 4.090315 1.085797 -25.622961 -4.120478 -4.268953 116.834308 7.243200 2.240252 0.000000 0.000000 0.000000 8.671523 -2.437982 -0.134167 30.237044 31.483059 1.267576 -136.380826 73.728089 -109.537978 0.000000 0.000000 0.000000 
0.042138 0.987809 -0.051012 -3.790201 5.365559 0.167342 4.385244 -0.376961 -5.253934 -1.027235 0.306765 -10.032288 3.767683 16.229798 49.479078 0.000000 0.000000 0.000000 -2.034140 0.135348 -1.289313 2.158706 -0.380179 -5.684518 -12.790108 -23.684063 45.542591 0.000000 0.000000 0.000000 3.718653 -0.267975 3.113922 -5.741298 2.007643 -25.494237 -0.236439 8.255889 36.904927 6.432231 1.171213 -40.498789 0.000000 0.000000 0.000000 15.866523 1.868772 1.546646 -33.260031 -9.974791 -4.181658 129.271178 -4.927826 -16.783815 0.000000 0.000000 0.000000 5.660162 -2.927290 -0.679648 25.017450 33.514324 1.498933 -114.064213 58.530981 -68.156309 0.000000 0.000000 0.000000 
0.042918 0.985633 -0.050894 -3.833207 4.781027 0.396977 4.529567 -0.383398 -5.488639 -0.628871 0.281734 -8.666320 1.501190 13.801096 44.002739 0.000000 0.000000 0.000000 -1.694840 0.124474 -1.127657 1.659722 -0.318058 -4.836169 -9.621579 -20.842426 39.036711 0.000000 0.000000 0.000000 4.819165 -0.286359 2.769877 -7.447528 2.473441 -23.708354 -2.104583 8.468249 34.915426 8.024437 -0.064428 -35.551492 0.000000 0.000000 0.000000 13.926569 0.122325 1.737488 -38.823728 -13.798802 -3.701088 138.533175 -16.817157 -44.235300 0.000000 0.000000 0.000000 1.821357 -2.431567 -0.843102 19.271949 34.985609 1.151819 -102.004988 45.418065 -43.404328 0.000000 0.000000 0.000000 
0.043766 0.984174 -0.050352 -3.573228 4.015561 0.547503 4.395610 -0.393579 -5.728515 -0.912516 0.241195 -6.087754 0.814372 11.960219 36.170051 0.000000 0.000000 0.000000 -1.927979 0.109751 -0.908983 1.670500 -0.267063 -3.016483 -7.229452 -18.214234 30.946562 0.000000 0.000000 0.000000 5.128012 -0.261959 2.346661 -8.542609 2.886581 -21.125418 -3.602998 9.414949 31.960945 11.274878 -2.512510 -29.828377 0.000000 0.000000 0.000000 12.035118 -0.863051 1.881001 -42.667193 -15.015219 -3.437548 146.370474 -28.794032 -78.985222 0.000000 0.000000 0.000000 -0.464840 -3.798785 -1.535278 14.458757 35.905130 0.667246 -93.949869 38.287544 -31.119937 0.000000 0.000000 0.000000 
